<?xml version="1.0" encoding="UTF-8"?>
<svg version="1.1" xmlns="http://www.w3.org/2000/svg" width="505" height="481">
<path d="M0 0 C1.30517578 0.00515625 2.61035156 0.0103125 3.95507812 0.015625 C9.22772752 0.05890996 14.14941755 0.14494074 19.3125 1.25 C20.199375 1.229375 21.08625 1.20875 22 1.1875 C24.3125 1.25 24.3125 1.25 26.3125 3.25 C26.8075 4.24 26.8075 4.24 27.3125 5.25 C29.29420105 5.75839108 29.29420105 5.75839108 31.6875 6.0625 C37.71419834 7.1337195 42.86249792 9.53536018 48.3125 12.25 C48.3125 12.91 48.3125 13.57 48.3125 14.25 C49.32054687 14.34796875 50.32859375 14.4459375 51.3671875 14.546875 C55.4520332 15.13482964 58.74836287 16.63516145 62.4375 18.5 C63.61570313 19.08265625 64.79390625 19.6653125 66.0078125 20.265625 C69.35919698 22.27804027 71.61423833 24.44678164 74.3125 27.25 C76.10105513 28.5543175 77.91417683 29.82559786 79.75 31.0625 C85.46786329 35.13676696 90.05650364 39.48201093 92.3125 46.25 C94.68875345 47.43391223 94.68875345 47.43391223 97.3125 48.25 C98.3025 48.58 99.2925 48.91 100.3125 49.25 C102.37395107 49.318991 104.43751401 49.33467727 106.5 49.3125 C107.58667969 49.30347656 108.67335938 49.29445312 109.79296875 49.28515625 C110.62441406 49.27355469 111.45585937 49.26195312 112.3125 49.25 C112.5703125 48.67378906 112.828125 48.09757812 113.09375 47.50390625 C114.4173676 45.05606215 115.9425772 43.24362273 117.8125 41.1875 C119.87065561 38.91567993 121.60388171 36.81292743 123.3125 34.25 C125.97544015 32.47470656 128.26955074 31.26431642 131.3125 30.25 C132.31892948 28.92151309 133.31942179 27.58849671 134.3125 26.25 C134.9725 26.25 135.6325 26.25 136.3125 26.25 C136.27125 25.5075 136.23 24.765 136.1875 24 C136.32237899 21.03266219 136.60290037 19.66058591 138.3125 17.25 C140.73828125 16.7109375 140.73828125 16.7109375 143.625 16.625 C147.68864809 16.48085969 150.57543942 15.82964567 154.3125 14.25 C155.529375 14.105625 156.74625 13.96125 158 13.8125 C159.093125 13.626875 160.18625 13.44125 161.3125 13.25 C161.9725 12.26 162.6325 11.27 163.3125 10.25 C165.9375 10.0625 165.9375 10.0625 168.3125 10.25 C168.3125 9.59 168.3125 8.93 168.3125 8.25 C169.36050781 8.19392578 169.36050781 8.19392578 170.4296875 8.13671875 C171.79480469 8.03810547 171.79480469 8.03810547 173.1875 7.9375 C174.09242188 7.87949219 174.99734375 7.82148438 175.9296875 7.76171875 C178.67471601 7.4617961 178.67471601 7.4617961 180.3125 4.25 C183.26295899 3.34239996 186.04509205 2.64809938 189.0625 2.0625 C190.38060669 1.80315674 190.38060669 1.80315674 191.7253418 1.53857422 C198.53564884 0.32041198 205.21212692 -0.11856234 212.125 -0.125 C213.03668945 -0.12653076 213.94837891 -0.12806152 214.88769531 -0.12963867 C220.03010847 -0.04424981 224.49618748 0.38541707 229.3125 2.25 C231.125 5.0625 231.125 5.0625 232.3125 8.25 C232.66230927 9.03058273 233.01211853 9.81116547 233.37252808 10.61540222 C234.38787416 13.46126225 234.55420713 15.57918548 234.53955078 18.59106445 C234.53939972 19.6317659 234.53924866 20.67246735 234.53909302 21.7447052 C234.52877045 22.8563353 234.51844788 23.96796539 234.5078125 25.11328125 C234.50356766 26.83396065 234.50356766 26.83396065 234.49923706 28.58940125 C234.48805697 32.24720768 234.46295595 35.90476778 234.4375 39.5625 C234.42746741 42.04491833 234.41834205 44.52734051 234.41015625 47.00976562 C234.38812471 53.08992756 234.35466848 59.16994618 234.3125 65.25 C238.10797921 64.28223902 238.10797921 64.28223902 241.3125 62.25 C241.51730471 58.69094931 241.63218712 55.13361186 241.73828125 51.5703125 C242.3125 48.25 242.3125 48.25 244.03515625 46.3203125 C246.70246226 45.06672442 248.50117517 44.91234851 251.4375 45 C252.30632812 45.01546875 253.17515625 45.0309375 254.0703125 45.046875 C256.3125 45.25 256.3125 45.25 258.3125 46.25 C259.42625 46.435625 259.42625 46.435625 260.5625 46.625 C264.14351136 47.43886622 266.29314473 48.06578555 269.3125 50.25 C273.36722973 57.95066723 273.98896064 65.82587157 274.125 74.375 C274.15650146 75.56206543 274.18800293 76.74913086 274.22045898 77.97216797 C274.38739272 85.8153871 274.16737967 93.55390791 273.57421875 101.37109375 C272.77646072 113.19458214 273.34256866 125.0368943 274.04443359 136.85229492 C274.09293457 137.74150635 274.14143555 138.63071777 274.19140625 139.546875 C274.2385376 140.33416992 274.28566895 141.12146484 274.33422852 141.93261719 C274.3125 144.25 274.3125 144.25 273.81625366 146.40356445 C273.18215944 149.98648301 273.19704936 153.48638961 273.23071289 157.11035156 C273.23377945 157.88666428 273.23684601 158.66297699 273.24000549 159.46281433 C273.24714084 161.14336436 273.25652047 162.82390604 273.26790047 164.50443268 C273.28535182 167.17050227 273.2956101 169.83651137 273.30381775 172.50262451 C273.32821193 180.08139772 273.36370623 187.66008965 273.40844727 195.23876953 C273.43534638 199.88052585 273.45231405 204.522235 273.46331596 209.16405487 C273.46949402 210.92618296 273.47945911 212.68830224 273.49339485 214.45038605 C273.62639451 231.42327322 273.62639451 231.42327322 271.3125 239.25 C269.765625 239.683125 269.765625 239.683125 268.1875 240.125 C264.86242003 241.07308798 261.58498547 242.13256594 258.3125 243.25 C258.3125 243.58 258.3125 243.91 258.3125 244.25 C248.26277624 244.44705341 248.26277624 244.44705341 244.3125 243.25 C243.6525 242.59 242.9925 241.93 242.3125 241.25 C240.10999008 240.78993654 240.10999008 240.78993654 237.6875 240.625 C236.87023437 240.55023438 236.05296875 240.47546875 235.2109375 240.3984375 C234.27121094 240.32496094 234.27121094 240.32496094 233.3125 240.25 C232.9825 240.91 232.6525 241.57 232.3125 242.25 C223.17911545 242.53994872 214.34948325 241.4241788 205.3125 240.25 C204.9825 241.57 204.6525 242.89 204.3125 244.25 C202.6625 243.59 201.0125 242.93 199.3125 242.25 C199.3125 241.92 199.3125 241.59 199.3125 241.25 C189.0825 241.25 178.8525 241.25 168.3125 241.25 C167.9825 241.91 167.6525 242.57 167.3125 243.25 C166.6525 243.25 165.9925 243.25 165.3125 243.25 C165.3125 243.91 165.3125 244.57 165.3125 245.25 C161.6825 244.92 158.0525 244.59 154.3125 244.25 C152.26857103 248.78099366 152.26857103 248.78099366 151.9375 251.9375 C151.3125 254.25 151.3125 254.25 149.625 255.625 C147.3125 256.25 147.3125 256.25 144.375 255.75 C140.85239408 255.17488067 139.53491079 255.92798532 136.3125 257.25 C133.5 256.875 133.5 256.875 131.3125 256.25 C130.73242188 256.99056641 130.73242188 256.99056641 130.140625 257.74609375 C129.61984375 258.38675781 129.0990625 259.02742188 128.5625 259.6875 C128.05203125 260.32558594 127.5415625 260.96367187 127.015625 261.62109375 C125.09419758 263.45878924 123.85614341 263.69958977 121.3125 264.25 C120.9825 264.91 120.6525 265.57 120.3125 266.25 C111.50900311 269.69484661 96.74138274 270.57025449 88.00390625 266.8359375 C85.375 265.125 85.375 265.125 83.22265625 263.3671875 C82.59230469 262.99851562 81.96195313 262.62984375 81.3125 262.25 C79.20519532 263.04063119 79.20519532 263.04063119 77.3125 264.25 C74.5625 263.875 74.5625 263.875 72.3125 263.25 C72.3125 262.26 72.3125 261.27 72.3125 260.25 C71.6525 260.25 70.9925 260.25 70.3125 260.25 C70.3125 259.59 70.3125 258.93 70.3125 258.25 C69.29929688 258.10304688 69.29929688 258.10304688 68.265625 257.953125 C61.0794263 256.7485021 61.0794263 256.7485021 57.8125 254.625 C55.69560416 251.27324826 55.08928341 248.13391703 54.3125 244.25 C53.64863281 244.27320313 52.98476562 244.29640625 52.30078125 244.3203125 C51.41777344 244.33835937 50.53476563 244.35640625 49.625 244.375 C48.75488281 244.39820313 47.88476562 244.42140625 46.98828125 244.4453125 C44.05197279 244.23098342 42.02838424 243.34968319 39.3125 242.25 C26.13932986 240.29157639 12.37269594 241.15417419 -0.90112305 241.23413086 C-4.32019966 241.25360339 -7.7099619 241.24877481 -11.125 241.0625 C-14.65663149 240.93739428 -14.65663149 240.93739428 -16.9609375 242.8125 C-20.64430763 244.75444872 -22.82392448 244.16746197 -26.875 243.4375 C-28.10605469 243.22480469 -29.33710937 243.01210938 -30.60546875 242.79296875 C-31.62253906 242.61378906 -32.63960937 242.43460938 -33.6875 242.25 C-35.7308426 242.08784374 -35.7308426 242.08784374 -37.44140625 243.2265625 C-41.87806622 245.24813626 -46.92641311 244.80589613 -51.6875 244.25 C-54.625 242.3125 -54.625 242.3125 -56.6875 240.25 C-58.34299531 239.86500109 -60.0097433 239.52206865 -61.6875 239.25 C-65.73707706 235.20042294 -64.8258501 228.28982734 -64.89282227 222.84594727 C-64.90272186 222.142668 -64.91262146 221.43938873 -64.92282104 220.71479797 C-64.95413411 218.41536703 -64.97907252 216.1159155 -65.00390625 213.81640625 C-65.02450194 212.21214799 -65.04549906 210.60789484 -65.06687927 209.00364685 C-65.1218301 204.80010132 -65.17135733 200.59650903 -65.21972656 196.3928833 C-65.27013982 192.0958647 -65.32572196 187.79891324 -65.38085938 183.50195312 C-65.48811037 175.08469234 -65.58962744 166.66737504 -65.6875 158.25 C-66.0175 158.25 -66.3475 158.25 -66.6875 158.25 C-66.6875 153.63 -66.6875 149.01 -66.6875 144.25 C-66.3575 144.25 -66.0275 144.25 -65.6875 144.25 C-65.5225 142.97125 -65.3575 141.6925 -65.1875 140.375 C-65.04828125 139.29605469 -65.04828125 139.29605469 -64.90625 138.1953125 C-64.6502515 136.24501656 -64.6502515 136.24501656 -64.6875 134.25 C-64.6875 107.91666667 -64.6875 81.58333333 -64.6875 55.25 C-64.0275 55.25 -63.3675 55.25 -62.6875 55.25 C-62.58953125 54.64542969 -62.4915625 54.04085937 -62.390625 53.41796875 C-61.54241298 50.80264836 -60.67558265 50.10483087 -58.4375 48.5625 C-57.85484375 48.14613281 -57.2721875 47.72976562 -56.671875 47.30078125 C-52.65506364 45.17376894 -48.47182527 45.09300358 -44 45.0625 C-43.04738281 45.04832031 -42.09476563 45.03414062 -41.11328125 45.01953125 C-38.6875 45.25 -38.6875 45.25 -36.6875 47.25 C-36.0275 47.58 -35.3675 47.91 -34.6875 48.25 C-33.63941959 50.22522846 -32.6354589 52.22481509 -31.6875 54.25 C-30.0375 53.59 -28.3875 52.93 -26.6875 52.25 C-26.77128906 51.07566406 -26.85507813 49.90132812 -26.94140625 48.69140625 C-29.25491853 13.53631818 -29.25491853 13.53631818 -22.6875 3.25 C-15.57584609 -0.78680838 -7.98269108 -0.12727759 0 0 Z M-11.6875 1.25 C-11.6875 1.58 -11.6875 1.91 -11.6875 2.25 C-8.3875 2.25 -5.0875 2.25 -1.6875 2.25 C-1.6875 1.92 -1.6875 1.59 -1.6875 1.25 C-4.9875 1.25 -8.2875 1.25 -11.6875 1.25 Z M209.3125 1.25 C209.3125 1.58 209.3125 1.91 209.3125 2.25 C212.9425 2.25 216.5725 2.25 220.3125 2.25 C220.3125 1.92 220.3125 1.59 220.3125 1.25 C216.6825 1.25 213.0525 1.25 209.3125 1.25 Z M232.3125 15.25 C232.3125 19.87 232.3125 24.49 232.3125 29.25 C232.6425 29.25 232.9725 29.25 233.3125 29.25 C233.3125 24.63 233.3125 20.01 233.3125 15.25 C232.9825 15.25 232.6525 15.25 232.3125 15.25 Z M-49.6875 46.25 C-49.6875 46.58 -49.6875 46.91 -49.6875 47.25 C-46.3875 47.25 -43.0875 47.25 -39.6875 47.25 C-39.6875 46.92 -39.6875 46.59 -39.6875 46.25 C-42.9875 46.25 -46.2875 46.25 -49.6875 46.25 Z M-63.6875 61.25 C-63.6875 67.85 -63.6875 74.45 -63.6875 81.25 C-63.3575 81.25 -63.0275 81.25 -62.6875 81.25 C-62.6875 74.65 -62.6875 68.05 -62.6875 61.25 C-63.0175 61.25 -63.3475 61.25 -63.6875 61.25 Z M-31.6875 78.25 C-32.3475 78.91 -33.0075 79.57 -33.6875 80.25 C-34.0175 80.25 -34.3475 80.25 -34.6875 80.25 C-35.17239837 85.38725982 -35.17239837 85.38725982 -32.6875 89.6875 C-32.0275 90.203125 -31.3675 90.71875 -30.6875 91.25 C-28.45123855 89.47447379 -28.45123855 89.47447379 -28.640625 87.15625 C-28.78757812 85.96515625 -28.78757812 85.96515625 -28.9375 84.75 C-29.02515625 83.9559375 -29.1128125 83.161875 -29.203125 82.34375 C-29.54048233 80.04399318 -29.54048233 80.04399318 -31.6875 78.25 Z M-27.6875 84.25 C-27.6875 85.9 -27.6875 87.55 -27.6875 89.25 C-27.3575 89.25 -27.0275 89.25 -26.6875 89.25 C-26.6875 87.6 -26.6875 85.95 -26.6875 84.25 C-27.0175 84.25 -27.3475 84.25 -27.6875 84.25 Z M234.3125 88.25 C235.3125 91.25 235.3125 91.25 235.3125 91.25 Z M232.3125 32.25 C232.3125 83.73 232.3125 135.21 232.3125 188.25 C238.33218036 187.72103163 238.33218036 187.72103163 243.3125 185.25 C243.55096903 182.9877642 243.55096903 182.9877642 243.5625 180.375 C243.60117187 179.04855469 243.60117187 179.04855469 243.640625 177.6953125 C243.55700155 175.18959361 243.55700155 175.18959361 241.80859375 173.75390625 C240.3125 172.25 240.3125 172.25 240.01953125 169.76953125 C240.05433594 168.87621094 240.08914063 167.98289062 240.125 167.0625 C240.15207031 166.16144531 240.17914063 165.26039063 240.20703125 164.33203125 C240.24183594 163.64496094 240.27664063 162.95789063 240.3125 162.25 C240.9725 161.92 241.6325 161.59 242.3125 161.25 C242.30089844 160.36957031 242.28929687 159.48914063 242.27734375 158.58203125 C242.26832031 157.42058594 242.25929688 156.25914062 242.25 155.0625 C242.23259766 153.33966797 242.23259766 153.33966797 242.21484375 151.58203125 C242.3125 148.25 242.3125 148.25 242.80859375 145.85546875 C243.5232657 142.16022698 243.45913637 138.49811482 243.4375 134.75 C243.43459961 133.52639771 243.43459961 133.52639771 243.43164062 132.27807617 C243.36560225 122.58969674 242.85141915 112.92167411 242.3125 103.25 C239.42015685 102.42361624 237.42507569 102.25 234.3125 102.25 C233.9825 79.15 233.6525 56.05 233.3125 32.25 C232.9825 32.25 232.6525 32.25 232.3125 32.25 Z M-31.6875 112.25 C-31.6875 113.24 -31.6875 114.23 -31.6875 115.25 C-32.6775 115.58 -33.6675 115.91 -34.6875 116.25 C-34.6875 119.22 -34.6875 122.19 -34.6875 125.25 C-31.65720876 125.59682084 -31.65720876 125.59682084 -30 123.625 C-28.31856427 120.58240201 -28.24967188 118.67965362 -28.6875 115.25 C-30.06256099 113.37109566 -30.06256099 113.37109566 -31.6875 112.25 Z M-27.6875 117.25 C-26.6875 121.25 -26.6875 121.25 -26.6875 121.25 Z M-31.6875 135.25 C-32.0175 135.91 -32.3475 136.57 -32.6875 137.25 C-33.3475 136.92 -34.0075 136.59 -34.6875 136.25 C-34.6875 139.55 -34.6875 142.85 -34.6875 146.25 C-34.0275 145.59 -33.3675 144.93 -32.6875 144.25 C-32.0275 144.58 -31.3675 144.91 -30.6875 145.25 C-29.48761955 139.96800407 -29.48761955 139.96800407 -31.6875 135.25 Z M-63.6875 142.25 C-63.6875 170.3 -63.6875 198.35 -63.6875 227.25 C-63.3575 227.25 -63.0275 227.25 -62.6875 227.25 C-62.6875 199.2 -62.6875 171.15 -62.6875 142.25 C-63.0175 142.25 -63.3475 142.25 -63.6875 142.25 Z M110.3125 166.25 C111.3125 169.25 111.3125 169.25 111.3125 169.25 Z M244.3125 176.25 C244.3125 178.56 244.3125 180.87 244.3125 183.25 C244.6425 183.25 244.9725 183.25 245.3125 183.25 C245.3125 180.94 245.3125 178.63 245.3125 176.25 C244.9825 176.25 244.6525 176.25 244.3125 176.25 Z M-24.6875 192.25 C-23.6875 194.25 -23.6875 194.25 -23.6875 194.25 Z M-23.6875 194.25 C-23.6875 194.58 -23.6875 194.91 -23.6875 195.25 C-16.0975 195.25 -8.5075 195.25 -0.6875 195.25 C-0.6875 194.92 -0.6875 194.59 -0.6875 194.25 C-8.2775 194.25 -15.8675 194.25 -23.6875 194.25 Z M207.3125 194.25 C207.3125 194.58 207.3125 194.91 207.3125 195.25 C213.9125 195.25 220.5125 195.25 227.3125 195.25 C227.3125 194.92 227.3125 194.59 227.3125 194.25 C220.7125 194.25 214.1125 194.25 207.3125 194.25 Z M2.3125 195.25 C2.3125 195.58 2.3125 195.91 2.3125 196.25 C5.2825 196.25 8.2525 196.25 11.3125 196.25 C11.3125 195.92 11.3125 195.59 11.3125 195.25 C8.3425 195.25 5.3725 195.25 2.3125 195.25 Z M197.3125 195.25 C197.3125 196.24 197.3125 197.23 197.3125 198.25 C198.7975 199.24 198.7975 199.24 200.3125 200.25 C200.4375 202.8125 200.4375 202.8125 200.3125 205.25 C200.6425 205.58 200.9725 205.91 201.3125 206.25 C203.00391656 206.16036938 204.69209602 206.00422324 206.375 205.8125 C207.29410156 205.71066406 208.21320313 205.60882813 209.16015625 205.50390625 C209.87042969 205.42011719 210.58070313 205.33632813 211.3125 205.25 C210.9825 204.59 210.6525 203.93 210.3125 203.25 C212.25 202.6875 212.25 202.6875 214.3125 202.25 C214.6425 202.58 214.9725 202.91 215.3125 203.25 C217.64547433 203.29092937 219.97955225 203.29241723 222.3125 203.25 C223.7731285 200.60261084 224.3125 199.35551666 224.3125 196.25 C215.4025 195.92 206.4925 195.59 197.3125 195.25 Z M-22.6875 196.25 C-23.0175 196.91 -23.3475 197.57 -23.6875 198.25 C-23.0275 198.6625 -22.3675 199.075 -21.6875 199.5 C-21.0275 200.0775 -20.3675 200.655 -19.6875 201.25 C-19.6875 202.57 -19.6875 203.89 -19.6875 205.25 C-15.3975 205.25 -11.1075 205.25 -6.6875 205.25 C-6.6875 203.27 -6.6875 201.29 -6.6875 199.25 C-6.089375 199.12625 -5.49125 199.0025 -4.875 198.875 C-2.42518652 198.29524015 -2.42518652 198.29524015 0.3125 196.25 C-7.2775 196.25 -14.8675 196.25 -22.6875 196.25 Z M-34.6875 197.25 C-33.6875 199.25 -33.6875 199.25 -33.6875 199.25 Z M34.3125 202.25 C34.6425 202.91 34.9725 203.57 35.3125 204.25 C35.6425 203.59 35.9725 202.93 36.3125 202.25 C35.6525 202.25 34.9925 202.25 34.3125 202.25 Z M36.3125 203.25 C40.3125 204.25 40.3125 204.25 40.3125 204.25 Z M41.3125 204.25 C41.3125 204.91 41.3125 205.57 41.3125 206.25 C41.9725 205.92 42.6325 205.59 43.3125 205.25 C42.6525 204.92 41.9925 204.59 41.3125 204.25 Z M215.3125 204.25 C215.3125 204.58 215.3125 204.91 215.3125 205.25 C217.6225 205.25 219.9325 205.25 222.3125 205.25 C222.3125 204.92 222.3125 204.59 222.3125 204.25 C220.0025 204.25 217.6925 204.25 215.3125 204.25 Z M39.3125 205.25 C40.3125 207.25 40.3125 207.25 40.3125 207.25 Z M-22.6875 206.25 C-22.6875 206.58 -22.6875 206.91 -22.6875 207.25 C-17.4075 207.25 -12.1275 207.25 -6.6875 207.25 C-6.6875 206.92 -6.6875 206.59 -6.6875 206.25 C-11.9675 206.25 -17.2475 206.25 -22.6875 206.25 Z M153.3125 209.25 C150.3425 210.57 147.3725 211.89 144.3125 213.25 C144.3125 213.91 144.3125 214.57 144.3125 215.25 C147.3125 216.58333333 147.3125 216.58333333 150.3125 215.25 C150.6425 216.9 150.9725 218.55 151.3125 220.25 C151.6425 219.59 151.9725 218.93 152.3125 218.25 C154.31133869 217.90977214 156.31140722 217.57670903 158.3125 217.25 C158.9725 216.59 159.6325 215.93 160.3125 215.25 C159.52875 214.63125 158.745 214.0125 157.9375 213.375 C155.3125 211.25 155.3125 211.25 153.3125 209.25 Z M60.3125 212.25 C60.6425 212.91 60.9725 213.57 61.3125 214.25 C61.6425 213.59 61.9725 212.93 62.3125 212.25 C61.6525 212.25 60.9925 212.25 60.3125 212.25 Z M63.3125 213.25 C62.9825 213.91 62.6525 214.57 62.3125 215.25 C63.3025 215.58 64.2925 215.91 65.3125 216.25 C65.6425 215.59 65.9725 214.93 66.3125 214.25 C65.3225 213.92 64.3325 213.59 63.3125 213.25 Z M67.3125 215.25 C68.3125 217.25 68.3125 217.25 68.3125 217.25 Z M138.3125 216.25 C138.9725 216.91 139.6325 217.57 140.3125 218.25 C140.3125 217.59 140.3125 216.93 140.3125 216.25 C139.6525 216.25 138.9925 216.25 138.3125 216.25 Z M148.3125 217.25 C146.2725281 218.61323743 146.2725281 218.61323743 144.3125 220.25 C144.3125 220.91 144.3125 221.57 144.3125 222.25 C146.78516765 221.90555119 146.78516765 221.90555119 149.3125 221.25 C149.6425 220.59 149.9725 219.93 150.3125 219.25 C149.6525 218.59 148.9925 217.93 148.3125 217.25 Z M63.3125 218.25 C62.9825 219.24 62.6525 220.23 62.3125 221.25 C63.6325 221.25 64.9525 221.25 66.3125 221.25 C65.9825 220.26 65.6525 219.27 65.3125 218.25 C64.6525 218.25 63.9925 218.25 63.3125 218.25 Z M67.3125 218.25 C68.3125 220.25 68.3125 220.25 68.3125 220.25 Z M57.3125 219.25 C58.3125 221.25 58.3125 221.25 58.3125 221.25 Z M59.3125 220.25 C59.6425 220.91 59.9725 221.57 60.3125 222.25 C60.6425 221.59 60.9725 220.93 61.3125 220.25 C60.6525 220.25 59.9925 220.25 59.3125 220.25 Z M79.3125 223.25 C79.209375 223.889375 79.10625 224.52875 79 225.1875 C78.773125 225.868125 78.54625 226.54875 78.3125 227.25 C77.3225 227.58 76.3325 227.91 75.3125 228.25 C75.3125 229.24 75.3125 230.23 75.3125 231.25 C76.3025 231.745 76.3025 231.745 77.3125 232.25 C77.4671875 233.178125 77.4671875 233.178125 77.625 234.125 C78.17768412 236.46461778 78.17768412 236.46461778 80.5 238.125 C83.34996644 239.5813848 83.34996644 239.5813848 86.625 238.4375 C87.511875 238.045625 88.39875 237.65375 89.3125 237.25 C89.6425 234.94 89.9725 232.63 90.3125 230.25 C86.64269796 227.33828211 86.64269796 227.33828211 82.3125 226.25 C82.3125 225.59 82.3125 224.93 82.3125 224.25 C81.3225 223.92 80.3325 223.59 79.3125 223.25 Z M-62.6875 231.25 C-61.6875 233.25 -61.6875 233.25 -61.6875 233.25 Z M-2.6875 238.25 C-2.6875 238.58 -2.6875 238.91 -2.6875 239.25 C2.5925 239.25 7.8725 239.25 13.3125 239.25 C13.3125 238.92 13.3125 238.59 13.3125 238.25 C8.0325 238.25 2.7525 238.25 -2.6875 238.25 Z M191.3125 238.25 C191.3125 238.58 191.3125 238.91 191.3125 239.25 C194.2825 239.25 197.2525 239.25 200.3125 239.25 C200.3125 238.92 200.3125 238.59 200.3125 238.25 C197.3425 238.25 194.3725 238.25 191.3125 238.25 Z M24.3125 239.25 C28.3125 240.25 28.3125 240.25 28.3125 240.25 Z M177.3125 239.25 C181.3125 240.25 181.3125 240.25 181.3125 240.25 Z M224.3125 239.25 C228.3125 240.25 228.3125 240.25 228.3125 240.25 Z M32.3125 240.25 C32.3125 240.58 32.3125 240.91 32.3125 241.25 C34.2925 241.25 36.2725 241.25 38.3125 241.25 C38.3125 240.92 38.3125 240.59 38.3125 240.25 C36.3325 240.25 34.3525 240.25 32.3125 240.25 Z M-20.6875 241.25 C-19.6875 243.25 -19.6875 243.25 -19.6875 243.25 Z M-50.6875 242.25 C-50.6875 242.58 -50.6875 242.91 -50.6875 243.25 C-47.7175 243.25 -44.7475 243.25 -41.6875 243.25 C-41.6875 242.92 -41.6875 242.59 -41.6875 242.25 C-44.6575 242.25 -47.6275 242.25 -50.6875 242.25 Z M45.3125 242.25 C49.3125 243.25 49.3125 243.25 49.3125 243.25 Z M158.3125 242.25 C162.3125 243.25 162.3125 243.25 162.3125 243.25 Z M105.3125 265.25 C105.3125 265.58 105.3125 265.91 105.3125 266.25 C108.9425 266.25 112.5725 266.25 116.3125 266.25 C116.3125 265.92 116.3125 265.59 116.3125 265.25 C112.6825 265.25 109.0525 265.25 105.3125 265.25 Z " fill="#FCC700" transform="translate(148.6875,159.75)"/>
<path d="M0 0 C0.66 0 1.32 0 2 0 C2 53.13 2 106.26 2 161 C10.58 161 19.16 161 28 161 C28.66 161.33 29.32 161.66 30 162 C31.70702735 162.06996014 33.41668003 162.08440154 35.125 162.0625 C36.03507812 162.05347656 36.94515625 162.04445313 37.8828125 162.03515625 C38.58148438 162.02355469 39.28015625 162.01195312 40 162 C40.33 162.99 40.66 163.98 41 165 C41.84304687 164.97679687 42.68609375 164.95359375 43.5546875 164.9296875 C44.65039062 164.91164063 45.74609375 164.89359375 46.875 164.875 C47.96554688 164.85179687 49.05609375 164.82859375 50.1796875 164.8046875 C53 165 53 165 55 167 C56.98015326 167 58.96136826 166.93863607 60.9375 166.8125 C64.38742852 167.02372011 65.5851877 167.5851877 68 170 C68.33 170.99 68.66 171.98 69 173 C69.33 172.34 69.66 171.68 70 171 C72.8125 170.8125 72.8125 170.8125 76 171 C77.5625 172.4375 77.5625 172.4375 79 174 C81.60611077 174.72197162 81.60611077 174.72197162 84 175 C84 175.66 84 176.32 84 177 C85.32 177 86.64 177 88 177 C90.01495907 177.61998741 92.0187415 178.27954236 94 179 C94 179.66 94 180.32 94 181 C93.01 181 92.02 181 91 181 C92.66666667 181.33333333 94.33333333 181.66666667 96 182 C97.66666667 182.33333333 99.33333333 182.66666667 101 183 C101 183.66 101 184.32 101 185 C102.65 185.33 104.3 185.66 106 186 C106 186.66 106 187.32 106 188 C107.32 188.33 108.64 188.66 110 189 C110 189.66 110 190.32 110 191 C109.34 191 108.68 191 108 191 C107.34 192.32 106.68 193.64 106 195 C105.01 195 104.02 195 103 195 C103 195.99 103 196.98 103 198 C103.99 198.33 104.98 198.66 106 199 C106 199.66 106 200.32 106 201 C103.17705872 199.80567869 101.41324351 198.4881486 99.0625 196.4375 C95.89218045 193.91418444 94.79326968 193.71931632 91 193 C89.22401278 192.24599359 87.47261886 191.43154574 85.75 190.5625 C84.87859375 190.13066406 84.0071875 189.69882812 83.109375 189.25390625 C81 188 81 188 80 186 C78.38280248 185.49462577 76.76094763 185.0003762 75.12109375 184.57421875 C71.35985481 183.55598279 67.68788277 182.25438189 64 181 C64 180.34 64 179.68 64 179 C62.82630859 178.92652344 62.82630859 178.92652344 61.62890625 178.8515625 C60.61699219 178.77679688 59.60507813 178.70203125 58.5625 178.625 C57.55316406 178.55539062 56.54382813 178.48578125 55.50390625 178.4140625 C54.67761719 178.27742187 53.85132813 178.14078125 53 178 C52.67 177.34 52.34 176.68 52 176 C51.10796875 176.02320313 50.2159375 176.04640625 49.296875 176.0703125 C48.12640625 176.08835937 46.9559375 176.10640625 45.75 176.125 C44.58984375 176.14820313 43.4296875 176.17140625 42.234375 176.1953125 C39 176 39 176 37.3215332 174.9934082 C33.82621925 173.49772701 30.35225731 173.81567108 26.62109375 173.91015625 C24.96159137 173.93056941 23.30208604 173.95074453 21.64257812 173.97070312 C19.03315496 174.01427968 16.42393241 174.06277911 13.81469727 174.11645508 C11.29183625 174.16465656 8.76924693 174.19457209 6.24609375 174.22265625 C5.07414711 174.2552932 5.07414711 174.2552932 3.87852478 174.28858948 C-1.51613003 174.33812967 -1.51613003 174.33812967 -3.93725586 172.64624023 C-5.32519712 170.49625449 -6.24733993 168.44614524 -7 166 C-6.505 165.01 -6.505 165.01 -6 164 C-6.66 164 -7.32 164 -8 164 C-8.92969728 161.21090816 -9.148819 159.42472966 -9.20532227 156.53442383 C-9.22525742 155.61763855 -9.24519257 154.70085327 -9.26573181 153.75628662 C-9.28245438 152.75003235 -9.29917694 151.74377808 -9.31640625 150.70703125 C-9.34771385 149.10930878 -9.34771385 149.10930878 -9.37965393 147.47930908 C-9.44665003 143.92378596 -9.50528554 140.36819331 -9.5625 136.8125 C-9.58334656 135.58892792 -9.60419312 134.36535583 -9.62567139 133.10470581 C-9.96076378 113.10919028 -10.1072597 93.11493076 -10.12293625 73.11675644 C-10.12496877 71.09359061 -10.12871509 69.07043425 -10.13284302 67.04727173 C-10.15918379 50.00637715 -9.84094276 33.02101859 -9 16 C-8.34 15.67 -7.68 15.34 -7 15 C-6.01 16.98 -5.02 18.96 -4 21 C-2.35 20.34 -0.7 19.68 1 19 C0.67 12.73 0.34 6.46 0 0 Z M-4 45 C-4.66 45.66 -5.32 46.32 -6 47 C-6.33 47 -6.66 47 -7 47 C-7.48489837 52.13725982 -7.48489837 52.13725982 -5 56.4375 C-4.34 56.953125 -3.68 57.46875 -3 58 C-0.76373855 56.22447379 -0.76373855 56.22447379 -0.953125 53.90625 C-1.10007812 52.71515625 -1.10007812 52.71515625 -1.25 51.5 C-1.33765625 50.7059375 -1.4253125 49.911875 -1.515625 49.09375 C-1.85298233 46.79399318 -1.85298233 46.79399318 -4 45 Z M0 51 C0 52.65 0 54.3 0 56 C0.33 56 0.66 56 1 56 C1 54.35 1 52.7 1 51 C0.67 51 0.34 51 0 51 Z M-4 79 C-4 79.99 -4 80.98 -4 82 C-4.99 82.33 -5.98 82.66 -7 83 C-7 85.97 -7 88.94 -7 92 C-3.96970876 92.34682084 -3.96970876 92.34682084 -2.3125 90.375 C-0.63106427 87.33240201 -0.56217188 85.42965362 -1 82 C-2.37506099 80.12109566 -2.37506099 80.12109566 -4 79 Z M0 84 C1 88 1 88 1 88 Z M-4 102 C-4.33 102.66 -4.66 103.32 -5 104 C-5.66 103.67 -6.32 103.34 -7 103 C-7 106.3 -7 109.6 -7 113 C-6.34 112.34 -5.68 111.68 -5 111 C-4.34 111.33 -3.68 111.66 -3 112 C-1.80011955 106.71800407 -1.80011955 106.71800407 -4 102 Z M5 163 C4.67 163.66 4.34 164.32 4 165 C4.66 165.4125 5.32 165.825 6 166.25 C6.66 166.8275 7.32 167.405 8 168 C8 169.32 8 170.64 8 172 C12.29 172 16.58 172 21 172 C21 170.02 21 168.04 21 166 C21.598125 165.87625 22.19625 165.7525 22.8125 165.625 C25.26231348 165.04524015 25.26231348 165.04524015 28 163 C20.41 163 12.82 163 5 163 Z M62 169 C62.33 169.66 62.66 170.32 63 171 C63.33 170.34 63.66 169.68 64 169 C63.34 169 62.68 169 62 169 Z M67 172 C68 174 68 174 68 174 Z M88 179 C88.33 179.66 88.66 180.32 89 181 C89.33 180.34 89.66 179.68 90 179 C89.34 179 88.68 179 88 179 Z M91 185 C90.67 185.99 90.34 186.98 90 188 C91.32 188 92.64 188 94 188 C93.67 187.01 93.34 186.02 93 185 C92.34 185 91.68 185 91 185 Z M95 185 C96 187 96 187 96 187 Z M85 186 C86 188 86 188 86 188 Z M87 187 C87.33 187.66 87.66 188.32 88 189 C88.33 188.34 88.66 187.68 89 187 C88.34 187 87.68 187 87 187 Z " fill="#FFFD00" transform="translate(121,193)"/>
<path d="M0 0 C3.96 0 7.92 0 12 0 C12 0.33 12 0.66 12 1 C10.68 1.33 9.36 1.66 8 2 C8.495 5.465 8.495 5.465 9 9 C11.31 9.66 13.62 10.32 16 11 C16 11.33 16 11.66 16 12 C12.04 12 8.08 12 4 12 C4 12.33 4 12.66 4 13 C3.39671875 12.97679687 2.7934375 12.95359375 2.171875 12.9296875 C1.37265625 12.91164063 0.5734375 12.89359375 -0.25 12.875 C-1.43335938 12.84019531 -1.43335938 12.84019531 -2.640625 12.8046875 C-5.22932194 13.0189836 -6.71742596 13.81919795 -9 15 C-11.33333333 15 -13.66666667 15 -16 15 C-19.13343209 15.97484554 -20.67622995 16.67622995 -23 19 C-26.47729415 20.69165661 -29.14421297 21.22033069 -33 21 C-33 21.66 -33 22.32 -33 23 C-33.94359375 23.36351562 -33.94359375 23.36351562 -34.90625 23.734375 C-39.15710184 25.39886518 -43.28525426 27.09392197 -47.3125 29.25 C-50.33425013 30.81910352 -52.53584114 31.43301986 -56 31 C-56 31.70125 -56 32.4025 -56 33.125 C-57.56517039 37.62486486 -60.91702595 39.73488719 -65 42 C-67.4482241 42.70604216 -69.43179488 42.89299145 -72 43 C-71.67 43.99 -71.34 44.98 -71 46 C-72.2065625 46.928125 -72.2065625 46.928125 -73.4375 47.875 C-76.03874519 49.74164041 -76.03874519 49.74164041 -77 52 C-77.85464844 51.98839844 -78.70929688 51.97679687 -79.58984375 51.96484375 C-80.69457031 51.95582031 -81.79929687 51.94679688 -82.9375 51.9375 C-84.03964844 51.92589844 -85.14179688 51.91429687 -86.27734375 51.90234375 C-88.91447634 51.68737429 -88.91447634 51.68737429 -90 53 C-94.80899079 53.44734798 -97.98030329 52.71095825 -102 50 C-102.875 47.3125 -102.875 47.3125 -103 45 C-104.98 44.67 -106.96 44.34 -109 44 C-109 43.34 -109 42.68 -109 42 C-106.525 41.505 -106.525 41.505 -104 41 C-103.34 38.69 -102.68 36.38 -102 34 C-101.01 34 -100.02 34 -99 34 C-98.34 34.66 -97.68 35.32 -97 36 C-95.76261515 33.195261 -94.96866049 30.79629321 -94.5 27.75 C-94.335 26.8425 -94.17 25.935 -94 25 C-93.34 24.67 -92.68 24.34 -92 24 C-91.34 23.01 -90.68 22.02 -90 21 C-89.938125 21.556875 -89.87625 22.11375 -89.8125 22.6875 C-88.67045135 25.93794615 -86.44372943 27.61587372 -84 30 C-82.8125 32.0625 -82.8125 32.0625 -82 34 C-81.62875 34.7425 -81.2575 35.485 -80.875 36.25 C-80.58625 36.8275 -80.2975 37.405 -80 38 C-79.54625 37.54625 -79.0925 37.0925 -78.625 36.625 C-75.73301108 33.73301108 -73.91974622 32.30658207 -70 31 C-68.80009697 29.47579886 -67.60033257 27.95148738 -66.40234375 26.42578125 C-64.29393009 24.28212948 -61.8452093 23.77596617 -59 23 C-58.67 22.34 -58.34 21.68 -58 21 C-56.67532254 20.3162955 -55.34136367 19.65035814 -54 19 C-53.34 18.34 -52.68 17.68 -52 17 C-51.46375 17.33 -50.9275 17.66 -50.375 18 C-47.94928988 19.21074153 -47.94928988 19.21074153 -44.875 18.9375 C-43.92625 18.958125 -42.9775 18.97875 -42 19 C-41.01 20.485 -41.01 20.485 -40 22 C-37.69 21.01 -35.38 20.02 -33 19 C-33.804375 18.401875 -34.60875 17.80375 -35.4375 17.1875 C-38 15 -38 15 -39 12 C-36.10155466 10.45060065 -33.28180148 9.40475307 -30.125 8.5 C-27.22248716 7.6566445 -24.36378528 6.78414143 -21.5 5.8125 C-19 5 -19 5 -17 5 C-16.34 4.34 -15.68 3.68 -15 3 C-12.6171875 2.8046875 -12.6171875 2.8046875 -9.875 2.875 C-8.96492188 2.89304687 -8.05484375 2.91109375 -7.1171875 2.9296875 C-6.41851562 2.95289063 -5.71984375 2.97609375 -5 3 C-5 2.34 -5 1.68 -5 1 C-3.35 1.33 -1.7 1.66 0 2 C0 1.34 0 0.68 0 0 Z M-54 20 C-53.34 20.66 -52.68 21.32 -52 22 C-52 21.34 -52 20.68 -52 20 C-52.66 20 -53.32 20 -54 20 Z M-44 21 C-46.0399719 22.36323743 -46.0399719 22.36323743 -48 24 C-48 24.66 -48 25.32 -48 26 C-45.52733235 25.65555119 -45.52733235 25.65555119 -43 25 C-42.67 24.34 -42.34 23.68 -42 23 C-42.66 22.34 -43.32 21.68 -44 21 Z " fill="#FFFC00" transform="translate(341,356)"/>
<path d="M0 0 C0.78375 0.474375 1.5675 0.94875 2.375 1.4375 C3.88948678 2.33898023 5.4235897 3.21179485 7 4 C7.33 3.34 7.66 2.68 8 2 C8.04627979 11.22269206 8.08184694 20.44534434 8.10362434 29.66812706 C8.11407483 33.95034248 8.12825697 38.23247864 8.15087891 42.51464844 C8.17256238 46.64488126 8.18455909 50.77503769 8.18975449 54.90532303 C8.19345835 56.48343738 8.2006908 58.06154741 8.21146011 59.63962936 C8.22591549 61.84496951 8.22798048 64.04999142 8.22705078 66.25537109 C8.231492 67.51223724 8.23593323 68.76910339 8.24050903 70.0640564 C8 73 8 73 6 75 C5.01 75 4.02 75 3 75 C2.67 75.99 2.34 76.98 2 78 C1.34 78 0.68 78 0 78 C-0.495 75.525 -0.495 75.525 -1 73 C-1.66 73 -2.32 73 -3 73 C-3.0272415 71.58344207 -3.04650467 70.16672955 -3.0625 68.75 C-3.07410156 67.96109375 -3.08570313 67.1721875 -3.09765625 66.359375 C-3 64 -3 64 -2.43359375 61.828125 C-1.77395385 59.91746296 -1.77395385 59.91746296 -3 58 C-3.08308638 56.62451844 -3.10736016 55.24514204 -3.09765625 53.8671875 C-3.09443359 53.06152344 -3.09121094 52.25585938 -3.08789062 51.42578125 C-3.07951172 50.58402344 -3.07113281 49.74226563 -3.0625 48.875 C-3.05798828 48.02550781 -3.05347656 47.17601562 -3.04882812 46.30078125 C-3.03702874 44.20049091 -3.01909306 42.1002367 -3 40 C-2.34 40 -1.68 40 -1 40 C-1 34.06 -1 28.12 -1 22 C-1.66 22 -2.32 22 -3 22 C-3.05398987 19.72942623 -3.09278742 17.45848712 -3.125 15.1875 C-3.14820313 13.92292969 -3.17140625 12.65835937 -3.1953125 11.35546875 C-3 8 -3 8 -1 5 C-0.61500109 3.34450469 -0.27206865 1.6777567 0 0 Z " fill="#FFFD00" transform="translate(250,297)"/>
<path d="M0 0 C0.33 0 0.66 0 1 0 C1.17711797 22.78254534 1.3428026 45.56514808 1.49477577 68.3478756 C1.56560354 78.92564956 1.64021054 89.50337194 1.72363281 100.08105469 C1.79631142 109.29767904 1.86198245 118.51432172 1.91914403 127.73105586 C1.94967403 132.61384528 1.98377699 137.49655215 2.02626419 142.37925339 C2.06610609 146.97065337 2.09661096 151.56201872 2.11981392 156.15353203 C2.13002165 157.84267705 2.14370251 159.53180502 2.16103554 161.22089195 C2.18411217 163.51925633 2.19492556 165.81735443 2.20254517 168.11581421 C2.2117631 169.4044808 2.22098103 170.69314739 2.23047829 172.02086449 C2 175 2 175 0 177 C-0.24234375 176.38511719 -0.4846875 175.77023437 -0.734375 175.13671875 C-3.05098449 168.97144155 -3.05098449 168.97144155 -8 165 C-8.99 165.33 -9.98 165.66 -11 166 C-11 167.98 -11 169.96 -11 172 C-11.33 172 -11.66 172 -12 172 C-12.21432579 165.35590042 -11.51233701 159.46794133 -10 153 C-8.35 154.32 -6.7 155.64 -5 157 C-3.02 156.01 -3.02 156.01 -1 155 C-1 132.23 -1 109.46 -1 86 C-2.98 85.67 -4.96 85.34 -7 85 C-8.32 86.65 -9.64 88.3 -11 90 C-11.05834395 86.12506384 -11.09371201 82.25024164 -11.125 78.375 C-11.14175781 77.28058594 -11.15851563 76.18617188 -11.17578125 75.05859375 C-11.23662606 65.01920021 -11.23662606 65.01920021 -9 60 C-8.01 60.66 -7.02 61.32 -6 62 C-3.20406217 60.60203108 -3.04826223 58.86525011 -2 56 C-1.67 55.34 -1.34 54.68 -1 54 C-0.91599471 52.40552536 -0.89272533 50.80759455 -0.90234375 49.2109375 C-0.90556641 48.26992188 -0.90878906 47.32890625 -0.91210938 46.359375 C-0.92048828 45.37453125 -0.92886719 44.3896875 -0.9375 43.375 C-0.94201172 42.38242187 -0.94652344 41.38984375 -0.95117188 40.3671875 C-0.96297855 37.9113984 -0.979446 35.45572896 -1 33 C-2.32 33 -3.64 33 -5 33 C-7.22189824 35.22189824 -7.92598892 37.08482708 -9 40 C-9.66 39.67 -10.32 39.34 -11 39 C-11.05800828 35.39590081 -11.09359869 31.79192149 -11.125 28.1875 C-11.14175781 27.16333984 -11.15851563 26.13917969 -11.17578125 25.08398438 C-11.18222656 24.10107422 -11.18867188 23.11816406 -11.1953125 22.10546875 C-11.20578613 21.19949951 -11.21625977 20.29353027 -11.22705078 19.36010742 C-11 17 -11 17 -9 14 C-8.86722656 14.61488281 -8.73445312 15.22976562 -8.59765625 15.86328125 C-8.42105469 16.67152344 -8.24445313 17.47976562 -8.0625 18.3125 C-7.88847656 19.11300781 -7.71445313 19.91351563 -7.53515625 20.73828125 C-7.00113841 23.145401 -7.00113841 23.145401 -6 26 C-4.35 26.33 -2.7 26.66 -1 27 C-0.67 18.09 -0.34 9.18 0 0 Z " fill="#FFAF00" transform="translate(258,215)"/>
<path d="M0 0 C2.97 0.495 2.97 0.495 6 1 C9.53588351 9.12427115 10.67216488 16.30591339 10.8125 25.125 C10.8597522 26.90559814 10.8597522 26.90559814 10.90795898 28.72216797 C11.07489272 36.5653871 10.85487967 44.30390791 10.26171875 52.12109375 C9.46396072 63.94458214 10.03006866 75.7868943 10.73193359 87.60229492 C10.78043457 88.49150635 10.82893555 89.38071777 10.87890625 90.296875 C10.9260376 91.08416992 10.97316895 91.87146484 11.02172852 92.68261719 C11 95 11 95 10.51147461 97.25732422 C9.8071355 101.03419562 9.89735325 104.76026286 9.9375 108.5859375 C9.94606997 110.32568307 9.95452895 112.06542919 9.96289062 113.80517578 C9.96909424 114.71495178 9.97529785 115.62472778 9.98168945 116.56207275 C10.10431517 135.40024439 9.79284721 154.17831322 9 173 C8.34 173 7.68 173 7 173 C7.99 176.465 7.99 176.465 9 180 C8.01 180.99 7.02 181.98 6 183 C5.97666725 160.21737732 5.95901897 137.4347566 5.94818783 114.6521244 C5.94302567 104.07439398 5.9359845 93.49667098 5.92456055 82.91894531 C5.91461126 73.70227821 5.90814599 64.48561647 5.90591151 55.26894414 C5.90460482 50.38620488 5.90152158 45.50348097 5.89426994 40.62074661 C5.88750589 36.02931465 5.88538383 31.43790444 5.88689232 26.84646797 C5.88661617 25.1573468 5.88461332 23.46822493 5.88079453 21.77910805 C5.87585128 19.4807735 5.87700407 17.18252209 5.87974548 14.88418579 C5.87882369 13.5955192 5.8779019 12.30685261 5.87695217 10.97913551 C6 8 6 8 7 6 C6.01 6 5.02 6 4 6 C4 5.34 4 4.68 4 4 C3.34 4 2.68 4 2 4 C2 3.34 2 2.68 2 2 C1.34 2 0.68 2 0 2 C0 1.34 0 0.68 0 0 Z " fill="#F6C203" transform="translate(412,209)"/>
<path d="M0 0 C0.66 0 1.32 0 2 0 C2 17.16 2 34.32 2 52 C7.47825081 50.67082039 7.47825081 50.67082039 9 49 C9.36760731 46.67182036 9.70241581 44.3381615 10 42 C10.33 42 10.66 42 11 42 C11.33 44.97 11.66 47.94 12 51 C12.33 51 12.66 51 13 51 C13 62.55 13 74.1 13 86 C12.67 86 12.34 86 12 86 C11.67 94.25 11.34 102.5 11 111 C10.67 111 10.34 111 10 111 C9.505 100.605 9.505 100.605 9 90 C6.69 89.67 4.38 89.34 2 89 C2 97.58 2 106.16 2 115 C1.67 115 1.34 115 1 115 C0.67 77.05 0.34 39.1 0 0 Z M2 75 C3 78 3 78 3 78 Z " fill="#FFFD00" transform="translate(381,173)"/>
<path d="M0 0 C0.33 0 0.66 0 1 0 C1.33 16.17 1.66 32.34 2 49 C4.64 48.67 7.28 48.34 10 48 C10.05428973 50.22889496 10.09292338 52.45817471 10.125 54.6875 C10.14820313 55.92886719 10.17140625 57.17023438 10.1953125 58.44921875 C9.95816328 62.76059162 9.48072973 65.62096645 6.26171875 68.61889648 C3.48328563 70.3155282 1.80847724 70.36010415 -1.4296875 70.328125 C-2.99396484 70.32039063 -2.99396484 70.32039063 -4.58984375 70.3125 C-5.67394531 70.291875 -6.75804687 70.27125 -7.875 70.25 C-9.48955078 70.24226563 -9.48955078 70.24226563 -11.13671875 70.234375 C-16.18437754 70.18458305 -21.04421426 70.07058786 -26 69 C-25.67 68.01 -25.34 67.02 -25 66 C-23.67696283 65.6278958 -22.34262065 65.29369827 -21 65 C-20.67 64.34 -20.34 63.68 -20 63 C-19.34 63.33 -18.68 63.66 -18 64 C-18 64.66 -18 65.32 -18 66 C-14.535 65.505 -14.535 65.505 -11 65 C-10.67 63.35 -10.34 61.7 -10 60 C-15.61 59.67 -21.22 59.34 -27 59 C-26.67 58.34 -26.34 57.68 -26 57 C-18.08 57 -10.16 57 -2 57 C-1.32895883 52.97375296 -0.86418987 49.62918967 -0.79467773 45.63720703 C-0.77473251 44.61660187 -0.75478729 43.5959967 -0.73423767 42.54446411 C-0.70916893 40.91757156 -0.70916893 40.91757156 -0.68359375 39.2578125 C-0.66281265 38.13430389 -0.64203156 37.01079529 -0.62062073 35.85324097 C-0.55542776 32.27722068 -0.49638116 28.70112923 -0.4375 25.125 C-0.394286 22.69530525 -0.3506708 20.2656176 -0.30664062 17.8359375 C-0.19977746 11.89069943 -0.09795573 5.94539114 0 0 Z M-18 67 C-18 67.33 -18 67.66 -18 68 C-15.69 68 -13.38 68 -11 68 C-11 67.67 -11 67.34 -11 67 C-13.31 67 -15.62 67 -18 67 Z " fill="#FFFE00" transform="translate(382,297)"/>
<path d="M0 0 C0.886875 0.45375 1.77375 0.9075 2.6875 1.375 C5.85355885 3.0335326 5.85355885 3.0335326 8.8125 3.875 C9.534375 4.24625 10.25625 4.6175 11 5 C11.8125 7.625 11.8125 7.625 12 10 C12.33 10 12.66 10 13 10 C13.33 12.31 13.66 14.62 14 17 C14.99 16.67 15.98 16.34 17 16 C17 17.32 17 18.64 17 20 C18.32 20 19.64 20 21 20 C21 20.99 21 21.98 21 23 C20.67 23.33 20.34 23.66 20 24 C20.33 24 20.66 24 21 24 C21 25.65 21 27.3 21 29 C20.01 29.33 19.02 29.66 18 30 C17.67 29.01 17.34 28.02 17 27 C16.67 28.32 16.34 29.64 16 31 C15.4225 31.103125 14.845 31.20625 14.25 31.3125 C11.67950842 32.09792798 10.06342716 33.30504197 8 35 C5.91002627 31.60379269 5.7367754 28.94836905 6 25 C6.33 24.67 6.66 24.34 7 24 C7.07148199 22.64756083 7.08399454 21.29165633 7.0625 19.9375 C7.041875 18.638125 7.02125 17.33875 7 16 C1.95246796 15.12638869 -1.41144456 14.70572228 -6 17 C-8.91360308 12.22169095 -9.19876651 9.44893869 -8 4 C-6.576875 3.566875 -6.576875 3.566875 -5.125 3.125 C-1.94788422 2.23174891 -1.94788422 2.23174891 0 0 Z M-1 2 C0 5 0 5 0 5 Z M5 5 C6 8 6 8 6 8 Z M1 8 C2 10 2 10 2 10 Z M9 9 C10 12 10 12 10 12 Z M0 11 C0.66 11.66 1.32 12.32 2 13 C2 12.34 2 11.68 2 11 C1.34 11 0.68 11 0 11 Z M-1 12 C0 14 0 14 0 14 Z M15 19 C16 22 16 22 16 22 Z M13 22 C14 24 14 24 14 24 Z M15 25 C16 27 16 27 16 27 Z " fill="#000000" transform="translate(389,61)"/>
<path d="M0 0 C0.763125 0.309375 1.52625 0.61875 2.3125 0.9375 C6.54599551 2.61120753 9.64280796 3.11136766 14.1875 3.0625 C15.27417969 3.05347656 16.36085938 3.04445312 17.48046875 3.03515625 C18.31191406 3.02355469 19.14335937 3.01195312 20 3 C19.67 5.31 19.34 7.62 19 10 C18.67 10 18.34 10 18 10 C17.67 18.91 17.34 27.82 17 37 C14.36 36.01 11.72 35.02 9 34 C8.67 31.03 8.34 28.06 8 25 C7.34 25.33 6.68 25.66 6 26 C6.20625 25.05125 6.4125 24.1025 6.625 23.125 C7.87856259 14.45599671 4.39091536 7.18513422 0 0 Z " fill="#FFFE00" transform="translate(241,206)"/>
<path d="M0 0 C0 8.25 0 16.5 0 25 C-0.66 25 -1.32 25 -2 25 C-2.33 26.98 -2.66 28.96 -3 31 C-3.99 31 -4.98 31 -6 31 C-6.66 31.66 -7.32 32.32 -8 33 C-8.66 30.03 -9.32 27.06 -10 24 C-10.33 24 -10.66 24 -11 24 C-11.05398987 21.72942623 -11.09278742 19.45848712 -11.125 17.1875 C-11.14820313 15.92292969 -11.17140625 14.65835937 -11.1953125 13.35546875 C-11 10 -11 10 -9 7 C-8.7525 5.453125 -8.7525 5.453125 -8.5 3.875 C-8.335 2.92625 -8.17 1.9775 -8 1 C-6 0 -6 0 0 0 Z " fill="#FFFF00" transform="translate(258,247)"/>
<path d="M0 0 C0.33 0 0.66 0 1 0 C1.90033563 14.0026404 2.1343408 27.93991125 2.09765625 41.96875 C2.095785 44.10917121 2.09436445 46.24959285 2.09336853 48.39001465 C2.08959524 53.95844761 2.07981325 59.52685346 2.06866455 65.09527588 C2.05835126 70.79137812 2.0538462 76.48748481 2.04882812 82.18359375 C2.03931435 92.15060382 2.02489663 102.11759691 2.00672913 112.08459473 C2.00276746 114.3897275 2 116.69486382 2 119 C1.34 119 0.68 119 0 119 C-0.33 110.09 -0.66 101.18 -1 92 C-1.99 91.67 -2.98 91.34 -4 91 C-4.05395478 89.37536158 -4.09277195 87.75021459 -4.125 86.125 C-4.15980469 84.76761719 -4.15980469 84.76761719 -4.1953125 83.3828125 C-4 81 -4 81 -2 79 C-1.7943058 76.26954231 -1.7943058 76.26954231 -1.9375 73.1875 C-2.10074904 67.47378368 -2.10074904 67.47378368 -1.51112366 64.70100403 C-0.93751576 61.66980555 -0.83865681 58.82578461 -0.79467773 55.7409668 C-0.77473251 54.50005783 -0.75478729 53.25914886 -0.73423767 51.9806366 C-0.71725743 50.63683189 -0.70037848 49.29302591 -0.68359375 47.94921875 C-0.66300474 46.56630357 -0.64200777 45.1833944 -0.62062073 43.80049133 C-0.56560101 40.17232151 -0.5161037 36.54409679 -0.46777344 32.91583252 C-0.41741102 29.208813 -0.36180213 25.50187254 -0.30664062 21.79492188 C-0.19930516 14.530015 -0.09780627 7.26504208 0 0 Z " fill="#FED600" transform="translate(392,241)"/>
<path d="M0 0 C0.33 0 0.66 0 1 0 C1.02338753 14.74285509 1.04100791 29.48570772 1.05181217 44.22857761 C1.0569627 51.07434777 1.06398167 57.92010639 1.07543945 64.76586914 C1.08649246 71.37294933 1.09228535 77.98002069 1.09487724 84.58711052 C1.09672426 87.1072604 1.100331 89.62740963 1.10573006 92.1475544 C1.11299355 95.67854351 1.11398869 99.20948313 1.11352539 102.74047852 C1.11712067 103.78129578 1.12071594 104.82211304 1.12442017 105.89447021 C1.11711802 111.0408814 0.89387826 115.92897105 0 121 C-0.33 121 -0.66 121 -1 121 C-1.95005272 106.75829529 -2.07957885 92.60843909 -1.9140625 78.33984375 C-1.89223078 76.12976953 -1.87078421 73.91969147 -1.84970093 71.70960999 C-1.80464066 67.12365921 -1.75545647 62.53777771 -1.703125 57.9519043 C-1.63623519 52.06632023 -1.57921613 46.18068807 -1.52509499 40.29497433 C-1.48238806 35.75264975 -1.43494571 31.21038448 -1.38599777 26.66812325 C-1.3630894 24.49553401 -1.34158125 22.32292955 -1.32149124 20.15031242 C-1.29283226 17.1352074 -1.25789584 14.12024095 -1.22119141 11.10522461 C-1.2138649 10.20719116 -1.20653839 9.30915771 -1.19898987 8.38391113 C-1.11432285 2.22864571 -1.11432285 2.22864571 0 0 Z " fill="#FFB800" transform="translate(124,233)"/>
<path d="M0 0 C0.99 0 1.98 0 3 0 C3 0.66 3 1.32 3 2 C3.9075 2.28875 4.815 2.5775 5.75 2.875 C9.49448618 4.17116829 12.19358978 5.19358978 15 8 C15.680625 8.639375 16.36125 9.27875 17.0625 9.9375 C19 12 19 12 20 15 C17.42786866 16.61949011 16.32330841 17.04408751 13.25 16.625 C12.5075 16.41875 11.765 16.2125 11 16 C11 15.01 11 14.02 11 13 C10.34 13 9.68 13 9 13 C9 12.34 9 11.68 9 11 C8.32453125 10.90203125 7.6490625 10.8040625 6.953125 10.703125 C-0.31452456 9.48484848 -0.31452456 9.48484848 -3.5625 7.1875 C-5.15851969 4.75877438 -5.68074659 2.87328071 -6 0 C-3.47064411 -1.26467795 -2.65809097 -0.7249339 0 0 Z " fill="#FFFC00" transform="translate(210,407)"/>
<path d="M0 0 C0.33 0 0.66 0 1 0 C2.36013886 7.26403068 2.41646761 14.57219867 2.625 21.9375 C2.64779022 22.70123932 2.67058044 23.46497864 2.69406128 24.25186157 C3.15286874 40.19879592 2.74896845 56.06786171 2 72 C1.34 72 0.68 72 0 72 C0.99 75.465 0.99 75.465 2 79 C1.01 79.99 0.02 80.98 -1 82 C-1.25320033 54.66215534 -0.55734287 27.33040978 0 0 Z " fill="#FCA100" transform="translate(419,310)"/>
<path d="M0 0 C0.33 0 0.66 0 1 0 C1.64441409 9.58689889 2.25793473 19.08982 1.5625 28.6875 C0.74628261 39.9752214 0.81598081 51.12448279 1.46166992 62.42260742 C1.96192083 71.27383319 2.2119015 79.33519578 0 88 C-0.33 88 -0.66 88 -1 88 C-1.91000831 80.54201816 -2.14685081 73.19217105 -2.1328125 65.68359375 C-2.13376923 64.54592056 -2.13472595 63.40824738 -2.13571167 62.23609924 C-2.1363879 59.851979 -2.13457275 57.46785687 -2.13037109 55.08374023 C-2.12496997 51.41711376 -2.13035776 47.7506073 -2.13671875 44.08398438 C-2.13605875 41.76302056 -2.1347792 39.44205682 -2.1328125 37.12109375 C-2.13483673 36.02018906 -2.13686096 34.91928436 -2.13894653 33.78501892 C-2.13579437 32.77629227 -2.13264221 31.76756561 -2.12939453 30.72827148 C-2.12859894 29.83687973 -2.12780334 28.94548798 -2.12698364 28.02708435 C-2 26 -2 26 -1 25 C-0.84213692 23.14825294 -0.74892644 21.2909089 -0.68359375 19.43359375 C-0.62075195 17.7465332 -0.62075195 17.7465332 -0.55664062 16.02539062 C-0.51732422 14.84138672 -0.47800781 13.65738281 -0.4375 12.4375 C-0.39431641 11.24962891 -0.35113281 10.06175781 -0.30664062 8.83789062 C-0.20016454 5.89205216 -0.09815159 2.9461257 0 0 Z " fill="#FFC200" transform="translate(421,228)"/>
<path d="M0 0 C2.77082834 2.77082834 2.53096421 5.18070857 3 9 C3.33 9.99 3.66 10.98 4 12 C5.65 12.33 7.3 12.66 9 13 C9.33 14.65 9.66 16.3 10 18 C9.21625 18.12375 8.4325 18.2475 7.625 18.375 C4.85942178 18.79117993 4.85942178 18.79117993 3 21 C2.29289322 22.64991582 1.62056011 24.31562256 1 26 C0.34 25.67 -0.32 25.34 -1 25 C-1.02900455 21.3958502 -1.04680018 17.79173038 -1.0625 14.1875 C-1.07087891 13.16333984 -1.07925781 12.13917969 -1.08789062 11.08398438 C-1.09111328 10.10107422 -1.09433594 9.11816406 -1.09765625 8.10546875 C-1.10289307 7.19949951 -1.10812988 6.29353027 -1.11352539 5.36010742 C-1 3 -1 3 0 0 Z " fill="#FFAA00" transform="translate(248,229)"/>
<path d="M0 0 C2.97 0.495 2.97 0.495 6 1 C10.49505619 10.2546005 10.31803371 18.7157239 9.75 28.6875 C9.68155091 30.1789441 9.61513041 31.67048275 9.55078125 33.16210938 C9.39052162 36.77612808 9.20298392 40.38809895 9 44 C8.67 44 8.34 44 8 44 C7.93941406 43.16855469 7.87882812 42.33710938 7.81640625 41.48046875 C7.69072266 39.85044922 7.69072266 39.85044922 7.5625 38.1875 C7.48128906 37.10855469 7.40007812 36.02960938 7.31640625 34.91796875 C7.09787539 31.94010095 7.09787539 31.94010095 6 29 C5.9072371 27.39660209 5.86931536 25.78967136 5.8671875 24.18359375 C5.86525391 22.79043945 5.86525391 22.79043945 5.86328125 21.36914062 C5.86908203 19.91797852 5.86908203 19.91797852 5.875 18.4375 C5.87113281 17.46619141 5.86726563 16.49488281 5.86328125 15.49414062 C5.86457031 14.56666016 5.86585938 13.63917969 5.8671875 12.68359375 C5.86831543 11.83337646 5.86944336 10.98315918 5.87060547 10.10717773 C6 8 6 8 7 6 C6.01 6 5.02 6 4 6 C4 5.34 4 4.68 4 4 C3.34 4 2.68 4 2 4 C2 3.34 2 2.68 2 2 C1.34 2 0.68 2 0 2 C0 1.34 0 0.68 0 0 Z " fill="#F9B301" transform="translate(412,209)"/>
<path d="M0 0 C0.66 0.33 1.32 0.66 2 1 C1.67 1.99 1.34 2.98 1 4 C0.896875 4.845625 0.79375 5.69125 0.6875 6.5625 C0 9 0 9 -1.6875 10.375 C-4 11 -4 11 -6.9375 10.5 C-10.44550529 9.92726444 -11.82351948 10.57894293 -15 12 C-16.32 12 -17.64 12 -19 12 C-18.67 10.68 -18.34 9.36 -18 8 C-17.443125 7.896875 -16.88625 7.79375 -16.3125 7.6875 C-13.90047951 7.07634906 -13.90047951 7.07634906 -11.625 5.5625 C-8.81964454 3.89264556 -6.09448353 3.00907071 -3 2 C-2.01 1.34 -1.02 0.68 0 0 Z " fill="#FFFC00" transform="translate(300,405)"/>
<path d="M0 0 C3.5624308 -0.05827558 7.12473819 -0.09368885 10.6875 -0.125 C12.19860352 -0.15013672 12.19860352 -0.15013672 13.74023438 -0.17578125 C14.71669922 -0.18222656 15.69316406 -0.18867188 16.69921875 -0.1953125 C17.59471436 -0.20578613 18.49020996 -0.21625977 19.4128418 -0.22705078 C22.32385603 0.02842183 24.4151537 0.63842323 27 2 C27.33 2.99 27.66 3.98 28 5 C27.01 5.495 27.01 5.495 26 6 C25.41057617 5.69916504 24.82115234 5.39833008 24.21386719 5.08837891 C21.5398855 3.77379902 19.54861325 3.68495377 16.578125 3.5859375 C15.04091797 3.52792969 15.04091797 3.52792969 13.47265625 3.46875 C12.40917969 3.4378125 11.34570312 3.406875 10.25 3.375 C8.63158203 3.31699219 8.63158203 3.31699219 6.98046875 3.2578125 C4.32048225 3.16365369 1.6605006 3.07802613 -1 3 C-0.67 2.01 -0.34 1.02 0 0 Z M9 1 C9 1.33 9 1.66 9 2 C12.63 2 16.26 2 20 2 C20 1.67 20 1.34 20 1 C16.37 1 12.74 1 9 1 Z " fill="#EBC000" transform="translate(349,160)"/>
<path d="M0 0 C0.33 0 0.66 0 1 0 C1.7519303 11.1864092 2.13026945 22.11558244 1.25390625 33.30078125 C1.00818191 36.88079585 0.95823604 40.41293976 1 44 C0.01 44 -0.98 44 -2 44 C-2.02683987 41.02077407 -2.04676037 38.04178705 -2.0625 35.0625 C-2.07087891 34.21236328 -2.07925781 33.36222656 -2.08789062 32.48632812 C-2.09111328 31.67744141 -2.09433594 30.86855469 -2.09765625 30.03515625 C-2.10289307 29.2862915 -2.10812988 28.53742676 -2.11352539 27.76586914 C-2 26 -2 26 -1 25 C-0.84213692 23.14825294 -0.74892644 21.2909089 -0.68359375 19.43359375 C-0.62075195 17.7465332 -0.62075195 17.7465332 -0.55664062 16.02539062 C-0.51732422 14.84138672 -0.47800781 13.65738281 -0.4375 12.4375 C-0.39431641 11.24962891 -0.35113281 10.06175781 -0.30664062 8.83789062 C-0.20016454 5.89205216 -0.09815159 2.9461257 0 0 Z " fill="#FFD700" transform="translate(421,228)"/>
<path d="M0 0 C0.66 0 1.32 0 2 0 C2 12.21 2 24.42 2 37 C0.515 37.495 0.515 37.495 -1 38 C-1.22686164 25.32095475 -0.55656506 12.66333533 0 0 Z " fill="#FFB500" transform="translate(123,195)"/>
<path d="M0 0 C6.6 0 13.2 0 20 0 C20 0.33 20 0.66 20 1 C24.62 1 29.24 1 34 1 C30.54569647 2.72715177 29.38007163 3.25566622 25.8125 3.4140625 C24.64074219 3.47207031 24.64074219 3.47207031 23.4453125 3.53125 C22.63835937 3.5621875 21.83140625 3.593125 21 3.625 C20.19304687 3.66367187 19.38609375 3.70234375 18.5546875 3.7421875 C12.63101717 4.01588844 7.63606007 4.20541481 2 2 C1.34 1.34 0.68 0.68 0 0 Z " fill="#F5D900" transform="translate(133,397)"/>
<path d="M0 0 C0.33 0 0.66 0 1 0 C1 10.56 1 21.12 1 32 C0.67 31.34 0.34 30.68 0 30 C-0.99 29.67 -1.98 29.34 -3 29 C-3.05395478 27.37536158 -3.09277195 25.75021459 -3.125 24.125 C-3.15980469 22.76761719 -3.15980469 22.76761719 -3.1953125 21.3828125 C-3 19 -3 19 -1 17 C-0.7943058 14.26954231 -0.7943058 14.26954231 -0.9375 11.1875 C-1.04952559 7.26660441 -0.9114304 3.82235541 0 0 Z " fill="#FFFF00" transform="translate(391,303)"/>
<path d="M0 0 C0.66 0.33 1.32 0.66 2 1 C2 6.94 2 12.88 2 19 C1.01 19 0.02 19 -1 19 C-1.02683987 16.02077407 -1.04676037 13.04178705 -1.0625 10.0625 C-1.07087891 9.21236328 -1.07925781 8.36222656 -1.08789062 7.48632812 C-1.09111328 6.67744141 -1.09433594 5.86855469 -1.09765625 5.03515625 C-1.10289307 4.2862915 -1.10812988 3.53742676 -1.11352539 2.76586914 C-1 1 -1 1 0 0 Z " fill="#FFAA00" transform="translate(248,318)"/>
<path d="M0 0 C8.40215965 -0.11039334 16.64736824 0.04541351 25 1 C21.87070822 2.83069903 19.62356854 3.23931181 16.015625 3.1953125 C15.08105469 3.18886719 14.14648438 3.18242187 13.18359375 3.17578125 C12.21550781 3.15902344 11.24742187 3.14226562 10.25 3.125 C9.26644531 3.11597656 8.28289062 3.10695313 7.26953125 3.09765625 C4.84610593 3.07412785 2.42317778 3.04125368 0 3 C0 2.01 0 1.02 0 0 Z " fill="#FFD600" transform="translate(240,425)"/>
<path d="M0 0 C2.85440587 0.14196516 5.70846196 0.28845826 8.5625 0.4375 C9.36236328 0.47681641 10.16222656 0.51613281 10.98632812 0.55664062 C15.71371506 0.80748156 20.32476901 1.25321814 25 2 C25 2.33 25 2.66 25 3 C22.03 3 19.06 3 16 3 C15.67 3.66 15.34 4.32 15 5 C9.43037975 4.11392405 9.43037975 4.11392405 6.875 3.4375 C4.67166673 2.84851359 4.67166673 2.84851359 1 3 C0.67 2.01 0.34 1.02 0 0 Z " fill="#F3BC00" transform="translate(366,397)"/>
<path d="M0 0 C1.58367747 0.14204741 3.16693318 0.28880153 4.75 0.4375 C5.63171875 0.51871094 6.5134375 0.59992188 7.421875 0.68359375 C9.69350452 0.96238465 11.79851823 1.38790577 14 2 C11.05733911 3.96177393 9.87567527 4.36742347 6.5 4.75 C5.7265625 4.84796875 4.953125 4.9459375 4.15625 5.046875 C2 5 2 5 -1 3 C-0.67 2.01 -0.34 1.02 0 0 Z " fill="#F1D800" transform="translate(159,160)"/>
<path d="M0 0 C3.3 0 6.6 0 10 0 C6 3 6 3 4 3 C3.67 3.66 3.34 4.32 3 5 C1.5625 6.625 1.5625 6.625 0 8 C-0.66 8 -1.32 8 -2 8 C-1.125 2.25 -1.125 2.25 0 0 Z " fill="#FFFF00" transform="translate(287,177)"/>
<path d="M0 0 C0.66 0 1.32 0 2 0 C2 9.57 2 19.14 2 29 C1.67 29 1.34 29 1 29 C1 27.02 1 25.04 1 23 C0.34 23 -0.32 23 -1 23 C-0.505 21.515 -0.505 21.515 0 20 C0.08106686 18.44578271 0.10756898 16.88832973 0.09765625 15.33203125 C0.09443359 14.43935547 0.09121094 13.54667969 0.08789062 12.62695312 C0.07951172 11.69818359 0.07113281 10.76941406 0.0625 9.8125 C0.05573242 8.40194336 0.05573242 8.40194336 0.04882812 6.96289062 C0.03704626 4.64186288 0.02059558 2.32096356 0 0 Z " fill="#F3C001" transform="translate(124,172)"/>
<path d="M0 0 C0 0.66 0 1.32 0 2 C2.97 2.495 2.97 2.495 6 3 C2.63355643 4.0635083 -0.18522983 4.00078718 -3.6875 3.6875 C-4.66074219 3.60886719 -5.63398438 3.53023437 -6.63671875 3.44921875 C-7.80654297 3.22685547 -7.80654297 3.22685547 -9 3 C-9.33 2.34 -9.66 1.68 -10 1 C-6.78548731 -0.60725635 -3.56387464 -0.05748185 0 0 Z " fill="#FAAE00" transform="translate(176,163)"/>
<path d="M0 0 C0.33 0.99 0.66 1.98 1 3 C1.598125 3.28875 2.19625 3.5775 2.8125 3.875 C5.69100341 5.35537318 7.10099999 7.42278571 9 10 C6.13215478 10.2389871 4.32257137 10.14820847 1.6875 8.9375 C0 7 0 7 -0.25 3.3125 C-0.1675 2.219375 -0.085 1.12625 0 0 Z " fill="#E9BD02" transform="translate(85,390)"/>
<path d="M0 0 C0.33 0.99 0.66 1.98 1 3 C4.63 3 8.26 3 12 3 C12 3.33 12 3.66 12 4 C6.39 4 0.78 4 -5 4 C-5.33 3.34 -5.66 2.68 -6 2 C-4.02 1.34 -2.04 0.68 0 0 Z " fill="#F3B801" transform="translate(347,160)"/>
<path d="M0 0 C-0.99 0.33 -1.98 0.66 -3 1 C-3.6496875 1.7425 -3.6496875 1.7425 -4.3125 2.5 C-6.68067968 4.60504861 -8.91481553 4.65720173 -12 5 C-11.375 3.125 -11.375 3.125 -10 1 C-6.34962875 -0.66647383 -3.81601142 -1.4676967 0 0 Z " fill="#F8B700" transform="translate(303,404)"/>
<path d="M0 0 C2.97 0.495 2.97 0.495 6 1 C6.99 3.97 7.98 6.94 9 10 C8.34 9.67 7.68 9.34 7 9 C7 8.01 7 7.02 7 6 C6.01 6 5.02 6 4 6 C4 5.34 4 4.68 4 4 C3.34 4 2.68 4 2 4 C2 3.34 2 2.68 2 2 C1.34 2 0.68 2 0 2 C0 1.34 0 0.68 0 0 Z " fill="#F3AB01" transform="translate(412,209)"/>
<path d="M0 0 C3.63 0 7.26 0 11 0 C10.67 0.66 10.34 1.32 10 2 C8.68 1.67 7.36 1.34 6 1 C6 1.66 6 2.32 6 3 C3.36 3.33 0.72 3.66 -2 4 C-1.34 2.68 -0.68 1.36 0 0 Z " fill="#FDB600" transform="translate(251,407)"/>
<path d="M0 0 C0.89203125 0.01804688 1.7840625 0.03609375 2.703125 0.0546875 C3.71632813 0.08949219 3.71632813 0.08949219 4.75 0.125 C4.75 0.455 4.75 0.785 4.75 1.125 C3.79287109 1.21587891 3.79287109 1.21587891 2.81640625 1.30859375 C1.99011719 1.39238281 1.16382813 1.47617188 0.3125 1.5625 C-0.92306641 1.68431641 -0.92306641 1.68431641 -2.18359375 1.80859375 C-4.23662025 1.91430815 -4.23662025 1.91430815 -5.25 3.125 C-5.48075082 4.47247084 -5.66153063 5.82877565 -5.8125 7.1875 C-6.0290625 9.1365625 -6.0290625 9.1365625 -6.25 11.125 C-6.58 11.125 -6.91 11.125 -7.25 11.125 C-7.25 8.485 -7.25 5.845 -7.25 3.125 C-7.91 2.795 -8.57 2.465 -9.25 2.125 C-6.03817851 0.21891902 -3.71117397 -0.09766247 0 0 Z " fill="#FFFF00" transform="translate(400.25,204.875)"/>
<path d="M0 0 C3.48872415 1.16290805 4.09976864 2.13967609 6.1875 5.0625 C6.71730469 5.79597656 7.24710938 6.52945313 7.79296875 7.28515625 C8.19128906 7.85105469 8.58960938 8.41695312 9 9 C8.67 9.66 8.34 10.32 8 11 C6.33333333 9.33333333 4.66666667 7.66666667 3 6 C2.401875 5.46375 1.80375 4.9275 1.1875 4.375 C0 3 0 3 0 0 Z " fill="#FFF100" transform="translate(231,194)"/>
<path d="M0 0 C0.66 0.33 1.32 0.66 2 1 C0.50902342 4.7952131 -1.75700849 6.61042731 -5 9 C-2.56521739 2.56521739 -2.56521739 2.56521739 0 0 Z " fill="#FFEB00" transform="translate(273,193)"/>
<path d="M0 0 C2.31 0 4.62 0 7 0 C6.34 1.32 5.68 2.64 5 4 C3.02 3.34 1.04 2.68 -1 2 C-0.67 1.34 -0.34 0.68 0 0 Z " fill="#FFCD00" transform="translate(139,398)"/>
<path d="M0 0 C0.33 0 0.66 0 1 0 C1 4.29 1 8.58 1 13 C-1.5654594 10.4345406 -1.54046087 8.52313332 -2 5 C-1.34 5 -0.68 5 0 5 C0 3.35 0 1.7 0 0 Z " fill="#FFD900" transform="translate(421,377)"/>
<path d="M0 0 C1.65 0 3.3 0 5 0 C4.67 1.32 4.34 2.64 4 4 C1.525 3.01 1.525 3.01 -1 2 C-0.67 1.34 -0.34 0.68 0 0 Z " fill="#FFFF00" transform="translate(349,400)"/>
<path d="M0 0 C1.65 0 3.3 0 5 0 C3.6875 2 3.6875 2 2 4 C1.01 4 0.02 4 -1 4 C-0.67 2.68 -0.34 1.36 0 0 Z " fill="#F1B401" transform="translate(89,209)"/>
<path d="M0 0 C1.14926266 0.95421808 2.29430541 1.91352045 3.4375 2.875 C4.07558594 3.40867188 4.71367187 3.94234375 5.37109375 4.4921875 C7 6 7 6 8 8 C4.06326356 6.68775452 1.77280706 5.08089673 -1 2 C-0.67 1.34 -0.34 0.68 0 0 Z " fill="#FFEA00" transform="translate(217,182)"/>
<path d="M0 0 C0.33 0 0.66 0 1 0 C1 2.97 1 5.94 1 9 C0.67 9 0.34 9 0 9 C0 6.03 0 3.06 0 0 Z " fill="#000000" transform="translate(393,83)"/>
<path d="M0 0 C2.64 0 5.28 0 8 0 C8 0.33 8 0.66 8 1 C5.36 1 2.72 1 0 1 C0 0.67 0 0.34 0 0 Z " fill="#FFBF00" transform="translate(383,401)"/>
<path d="M0 0 C2.31 0 4.62 0 7 0 C5.02 0.99 5.02 0.99 3 2 C2.01 1.34 1.02 0.68 0 0 Z " fill="#FFD400" transform="translate(317,401)"/>
<path d="M0 0 C0.33 0 0.66 0 1 0 C1 2.64 1 5.28 1 8 C0.67 8 0.34 8 0 8 C0 5.36 0 2.72 0 0 Z " fill="#FFFF00" transform="translate(82,356)"/>
<path d="M0 0 C0.33 0 0.66 0 1 0 C1 2.31 1 4.62 1 7 C0.67 7 0.34 7 0 7 C0 4.69 0 2.38 0 0 Z " fill="#FFFF00" transform="translate(82,249)"/>
<path d="M0 0 C0.33 1.32 0.66 2.64 1 4 C0.34 3.01 -0.32 2.02 -1 1 C-0.67 0.67 -0.34 0.34 0 0 Z " fill="#000000" transform="translate(405,92)"/>
<path d="M0 0 C0.33 0 0.66 0 1 0 C1 1.65 1 3.3 1 5 C0.67 5 0.34 5 0 5 C0 3.35 0 1.7 0 0 Z " fill="#000000" transform="translate(395,80)"/>
<path d="M0 0 C0.99 0.33 1.98 0.66 3 1 C2.01 1 1.02 1 0 1 C0 0.67 0 0.34 0 0 Z " fill="#FFFF00" transform="translate(228,395)"/>
<path d="M0 0 C1 4 1 4 1 4 Z " fill="#FFFF00" transform="translate(386,324)"/>
<path d="M0 0 C1 4 1 4 1 4 Z " fill="#000000" transform="translate(453,68)"/>
<path d="M0 0 C1 4 1 4 1 4 Z " fill="#000000" transform="translate(421,68)"/>
<path d="M0 0 C1 4 1 4 1 4 Z " fill="#000000" transform="translate(421,60)"/>
<path d="M0 0 C3 1 3 1 3 1 Z " fill="#FF7F00" transform="translate(303,404)"/>
<path d="M0 0 C3 1 3 1 3 1 Z " fill="#FFA900" transform="translate(199,404)"/>
<path d="M0 0 C0.99 0.495 0.99 0.495 2 1 C1.01 1.495 1.01 1.495 0 2 C0 1.34 0 0.68 0 0 Z " fill="#FFFF00" transform="translate(421,393)"/>
<path d="M0 0 C0.33 0.66 0.66 1.32 1 2 C0.34 1.67 -0.32 1.34 -1 1 C-0.67 0.67 -0.34 0.34 0 0 Z " fill="#FFFF00" transform="translate(363,358)"/>
<path d="M0 0 C3 1 3 1 3 1 Z " fill="#FFD400" transform="translate(324,166)"/>
<path d="" fill="#000000" transform="translate(0,0)"/>
<path d="" fill="#000000" transform="translate(0,0)"/>
<path d="" fill="#000000" transform="translate(0,0)"/>
<path d="" fill="#000000" transform="translate(0,0)"/>
<path d="M0 0 C2 1 2 1 2 1 Z " fill="#FFFF00" transform="translate(229,423)"/>
<path d="M0 0 C2 1 2 1 2 1 Z " fill="#FFFF00" transform="translate(279,417)"/>
<path d="" fill="#FFFF00" transform="translate(0,0)"/>
<path d="M0 0 C2 1 2 1 2 1 Z " fill="#FF7F00" transform="translate(408,402)"/>
<path d="M0 0 C2 1 2 1 2 1 Z " fill="#FFBF00" transform="translate(411,401)"/>
<path d="" fill="#FFFF00" transform="translate(0,0)"/>
<path d="M0 0 C2 1 2 1 2 1 Z " fill="#FFFF00" transform="translate(306,173)"/>
<path d="M0 0 C2 1 2 1 2 1 Z " fill="#FFFF00" transform="translate(197,173)"/>
<path d="M0 0 C2 1 2 1 2 1 Z " fill="#FFFF00" transform="translate(315,169)"/>
<path d="" fill="#000000" transform="translate(0,0)"/>
<path d="" fill="#000000" transform="translate(0,0)"/>
<path d="" fill="#000000" transform="translate(0,0)"/>
<path d="" fill="#000000" transform="translate(0,0)"/>
<path d="" fill="#000000" transform="translate(0,0)"/>
<path d="" fill="#000000" transform="translate(0,0)"/>
<path d="" fill="#000000" transform="translate(0,0)"/>
<path d="" fill="#000000" transform="translate(0,0)"/>
<path d="" fill="#000000" transform="translate(0,0)"/>
<path d="" fill="#000000" transform="translate(0,0)"/>
<path d="" fill="#000000" transform="translate(0,0)"/>
<path d="" fill="#000000" transform="translate(0,0)"/>
<path d="" fill="#000000" transform="translate(0,0)"/>
<path d="M0 0 C2 1 2 1 2 1 Z " fill="#000000" transform="translate(419,67)"/>
<path d="" fill="#000000" transform="translate(0,0)"/>
<path d="" fill="#000000" transform="translate(0,0)"/>
<path d="" fill="#000000" transform="translate(0,0)"/>
<path d="" fill="#000000" transform="translate(0,0)"/>
<path d="" fill="#000000" transform="translate(0,0)"/>
<path d="" fill="#000000" transform="translate(0,0)"/>
<path d="" fill="#000000" transform="translate(0,0)"/>
<path d="" fill="#FFFF00" transform="translate(0,0)"/>
<path d="" fill="#FFFF00" transform="translate(0,0)"/>
<path d="" fill="#FFFF00" transform="translate(0,0)"/>
<path d="" fill="#FFFF00" transform="translate(0,0)"/>
<path d="" fill="#FFFF00" transform="translate(0,0)"/>
<path d="" fill="#FFFF00" transform="translate(0,0)"/>
<path d="" fill="#FFFF00" transform="translate(0,0)"/>
<path d="" fill="#FFFF00" transform="translate(0,0)"/>
<path d="" fill="#FFFF00" transform="translate(0,0)"/>
<path d="" fill="#FFFF00" transform="translate(0,0)"/>
<path d="" fill="#FFFF00" transform="translate(0,0)"/>
<path d="" fill="#FF7F00" transform="translate(0,0)"/>
<path d="" fill="#FFFF00" transform="translate(0,0)"/>
<path d="" fill="#FFFF00" transform="translate(0,0)"/>
<path d="" fill="#FFFF00" transform="translate(0,0)"/>
<path d="" fill="#FFFF00" transform="translate(0,0)"/>
<path d="" fill="#FFFF00" transform="translate(0,0)"/>
<path d="" fill="#FFFF00" transform="translate(0,0)"/>
<path d="" fill="#FFFF00" transform="translate(0,0)"/>
<path d="" fill="#FFFF00" transform="translate(0,0)"/>
<path d="" fill="#FFFF00" transform="translate(0,0)"/>
<path d="" fill="#FFFF00" transform="translate(0,0)"/>
<path d="" fill="#FFFF00" transform="translate(0,0)"/>
<path d="" fill="#FFFF00" transform="translate(0,0)"/>
<path d="" fill="#FFFF00" transform="translate(0,0)"/>
<path d="" fill="#FFFF00" transform="translate(0,0)"/>
<path d="" fill="#FFFF00" transform="translate(0,0)"/>
<path d="" fill="#FFFF00" transform="translate(0,0)"/>
<path d="" fill="#FFFF00" transform="translate(0,0)"/>
<path d="" fill="#FFFF00" transform="translate(0,0)"/>
<path d="" fill="#FFFF00" transform="translate(0,0)"/>
<path d="" fill="#FF7F00" transform="translate(0,0)"/>
<path d="" fill="#FFFF00" transform="translate(0,0)"/>
<path d="" fill="#000000" transform="translate(0,0)"/>
<path d="" fill="#FFFF00" transform="translate(0,0)"/>
<path d="" fill="#FFFF00" transform="translate(0,0)"/>
<path d="" fill="#FFFF00" transform="translate(0,0)"/>
<path d="" fill="#FFFF00" transform="translate(0,0)"/>
<path d="" fill="#FFFF00" transform="translate(0,0)"/>
<path d="" fill="#000000" transform="translate(0,0)"/>
<path d="" fill="#000000" transform="translate(0,0)"/>
<path d="" fill="#000000" transform="translate(0,0)"/>
<path d="" fill="#000000" transform="translate(0,0)"/>
<path d="" fill="#000000" transform="translate(0,0)"/>
<path d="" fill="#000000" transform="translate(0,0)"/>
<path d="" fill="#000000" transform="translate(0,0)"/>
<path d="" fill="#000000" transform="translate(0,0)"/>
<path d="" fill="#000000" transform="translate(0,0)"/>
<path d="" fill="#000000" transform="translate(0,0)"/>
<path d="" fill="#000000" transform="translate(0,0)"/>
<path d="" fill="#000000" transform="translate(0,0)"/>
<path d="" fill="#000000" transform="translate(0,0)"/>
<path d="" fill="#000000" transform="translate(0,0)"/>
<path d="" fill="#000000" transform="translate(0,0)"/>
<path d="" fill="#000000" transform="translate(0,0)"/>
<path d="" fill="#000000" transform="translate(0,0)"/>
<path d="" fill="#000000" transform="translate(0,0)"/>
<path d="" fill="#000000" transform="translate(0,0)"/>
<path d="" fill="#000000" transform="translate(0,0)"/>
<path d="" fill="#000000" transform="translate(0,0)"/>
<path d="" fill="#000000" transform="translate(0,0)"/>
<path d="" fill="#000000" transform="translate(0,0)"/>
<path d="" fill="#000000" transform="translate(0,0)"/>
<path d="" fill="#000000" transform="translate(0,0)"/>
<path d="" fill="#000000" transform="translate(0,0)"/>
<path d="" fill="#000000" transform="translate(0,0)"/>
<path d="" fill="#000000" transform="translate(0,0)"/>
<path d="" fill="#000000" transform="translate(0,0)"/>
<path d="" fill="#000000" transform="translate(0,0)"/>
<path d="" fill="#000000" transform="translate(0,0)"/>
<path d="" fill="#000000" transform="translate(0,0)"/>
<path d="" fill="#000000" transform="translate(0,0)"/>
<path d="" fill="#000000" transform="translate(0,0)"/>
<path d="" fill="#000000" transform="translate(0,0)"/>
<path d="" fill="#000000" transform="translate(0,0)"/>
<path d="" fill="#000000" transform="translate(0,0)"/>
<path d="" fill="#000000" transform="translate(0,0)"/>
<path d="" fill="#000000" transform="translate(0,0)"/>
<path d="" fill="#000000" transform="translate(0,0)"/>
<path d="" fill="#000000" transform="translate(0,0)"/>
<path d="" fill="#000000" transform="translate(0,0)"/>
<path d="" fill="#000000" transform="translate(0,0)"/>
<path d="" fill="#000000" transform="translate(0,0)"/>
<path d="" fill="#000000" transform="translate(0,0)"/>
<path d="" fill="#000000" transform="translate(0,0)"/>
<path d="" fill="#000000" transform="translate(0,0)"/>
<path d="" fill="#000000" transform="translate(0,0)"/>
<path d="" fill="#000000" transform="translate(0,0)"/>
<path d="" fill="#000000" transform="translate(0,0)"/>
<path d="" fill="#000000" transform="translate(0,0)"/>
<path d="" fill="#000000" transform="translate(0,0)"/>
<path d="" fill="#000000" transform="translate(0,0)"/>
<path d="" fill="#000000" transform="translate(0,0)"/>
<path d="" fill="#000000" transform="translate(0,0)"/>
<path d="" fill="#000000" transform="translate(0,0)"/>
<path d="" fill="#000000" transform="translate(0,0)"/>
<path d="" fill="#000000" transform="translate(0,0)"/>
<path d="" fill="#000000" transform="translate(0,0)"/>
<path d="" fill="#000000" transform="translate(0,0)"/>
<path d="" fill="#000000" transform="translate(0,0)"/>
<path d="" fill="#000000" transform="translate(0,0)"/>
<path d="" fill="#000000" transform="translate(0,0)"/>
<path d="" fill="#000000" transform="translate(0,0)"/>
<path d="" fill="#000000" transform="translate(0,0)"/>
<path d="" fill="#000000" transform="translate(0,0)"/>
<path d="" fill="#000000" transform="translate(0,0)"/>
<path d="" fill="#000000" transform="translate(0,0)"/>
<path d="" fill="#000000" transform="translate(0,0)"/>
<path d="" fill="#000000" transform="translate(0,0)"/>
<path d="" fill="#000000" transform="translate(0,0)"/>
<path d="" fill="#000000" transform="translate(0,0)"/>
</svg>
